<svg width="447" height="266" viewBox="0 0 447 266" fill="none" xmlns="http://www.w3.org/2000/svg">
<path d="M312.204 121.335C308.702 100.375 290.45 84.4022 268.462 84.4022H178.542C156.562 84.4022 138.315 100.362 134.801 121.31C134.395 123.705 134.186 126.169 134.186 128.68V206.89C134.186 209.401 134.395 211.861 134.801 214.256C137.598 230.945 149.751 244.471 165.697 249.276C169.762 250.503 174.075 251.164 178.542 251.164H268.462C272.929 251.164 277.242 250.503 281.308 249.276C297.257 244.467 309.415 230.933 312.204 214.231C312.605 211.844 312.814 209.393 312.814 206.89V128.68C312.814 126.178 312.605 123.723 312.204 121.335ZM276.072 249.276C273.6 249.715 271.059 249.945 268.462 249.945H178.542C175.945 249.945 173.405 249.715 170.932 249.276C150.742 245.69 135.411 228.077 135.411 206.89V180.93C135.411 107.575 194.978 85.6256 268.462 85.6256C292.282 85.6256 311.593 104.902 311.593 128.68V206.89C253.768 214.615 296.262 245.69 276.072 249.276Z" fill="#3F3D56"/>
<path d="M241.395 143.421L244.855 165.868L295.593 158.961L290.692 132.735L241.395 143.421Z" fill="#009EDD"/>
<path d="M281.216 17.4636H260.238V39.1398H281.216V17.4636Z" fill="#2F2E41"/>
<path d="M262.152 40.3962L267.341 24.8562H277.456L277.987 40.3962H262.152Z" fill="#FFB6B6"/>
<path opacity="0.1" d="M262.152 40.3962L267.341 24.8562H277.456L277.987 40.3962H262.152Z" fill="black"/>
<path d="M267.629 178.818L267.053 238.676L266.476 243.28V249.89L275.125 250.762L275.701 237.524C275.701 237.524 284.926 211.624 282.62 191.48C280.314 171.335 281.467 177.091 281.467 177.091L267.629 178.818Z" fill="#FFB6B6"/>
<path d="M273.12 183.518L251.843 239.485L250.702 243.983L248.294 250.14L239.92 247.812L244.207 235.272C244.207 235.272 245.052 207.796 254.541 189.869C264.031 171.943 260.859 176.885 260.859 176.885L273.12 183.518Z" fill="#FFB6B6"/>
<path d="M262.152 38.6696L246.585 45.5763L256.524 96.8078L254.954 170.338L244.576 192.21C244.576 192.21 242.837 204.718 260.711 196.66C278.584 188.602 298.764 186.3 298.764 186.3L293.863 152.63L289.539 64.2819L290.116 44.7129L277.431 36.6552L262.152 38.6696V38.6696Z" fill="#2F2E41"/>
<path d="M253.482 193.009L236.206 164.141L255.948 96.8077L246.585 45.5763L263.011 38.5563C263.011 38.5563 271.515 46.8227 271.515 53.641C271.515 60.4593 253.482 193.009 253.482 193.009Z" fill="#E6E6E6"/>
<path d="M290.959 187.253L275.278 52.7872C275.08 51.0893 275.37 49.3702 276.115 47.831L280.602 38.5563L298.188 43.5618L291.119 98.5344L310.007 152.63L290.959 187.253H290.959Z" fill="#E6E6E6"/>
<path d="M276.855 249.611C276.855 249.611 265.9 243.28 264.747 246.733C263.593 250.187 263.017 253.064 263.017 253.064C263.017 253.064 260.134 264 268.783 264C277.431 264 276.855 259.026 276.855 259.026V249.611Z" fill="#2F2E41"/>
<path d="M238.728 246.111C238.728 246.111 251.239 244.192 251.055 247.828C250.871 251.463 250.359 254.353 250.359 254.353C250.359 254.353 249.059 265.586 241.003 262.446C232.947 259.305 235.297 254.882 235.297 254.882L238.728 246.111Z" fill="#2F2E41"/>
<path d="M273.073 33.314C280.989 33.314 287.406 26.908 287.406 19.0057C287.406 11.1035 280.989 4.69745 273.073 4.69745C265.157 4.69745 258.739 11.1035 258.739 19.0057C258.739 26.908 265.157 33.314 273.073 33.314Z" fill="#FFB6B6"/>
<path d="M284.525 6.25495C283.857 2.72716 280.23 0.34103 276.646 0.0418153C273.062 -0.257399 269.551 1.09351 266.324 2.67741C264.136 3.7511 261.982 4.96128 260.21 6.63253C258.437 8.30378 257.061 10.487 256.743 12.8998C256.631 13.7535 256.645 14.6454 256.295 15.4324C255.858 16.4154 254.919 17.083 254.353 17.998C253.337 19.6389 253.803 22.0261 255.363 23.1651C253.403 23.9991 251.388 24.8691 249.894 26.3857C248.399 27.9022 247.536 30.2437 248.356 32.2072C248.647 32.9019 249.126 33.51 249.374 34.2207C249.845 35.5704 249.397 37.1038 248.561 38.2645C247.726 39.4253 246.547 40.286 245.389 41.1263C248.366 41.7087 251.403 42.1624 254.424 41.8907C257.445 41.6191 260.476 40.5623 262.664 38.4652C264.851 36.368 266.055 33.133 265.27 30.2086C264.669 27.9683 262.987 26.0053 262.988 23.686C262.989 21.9033 263.993 20.2951 264.963 18.798L271.316 8.9894C271.697 8.40127 272.099 7.79267 272.701 7.43295C273.725 6.82098 275.053 7.0901 276.132 7.59803C277.212 8.10597 278.198 8.83471 279.349 9.14965C281.699 9.79241 284.424 8.31631 285.165 5.99985" fill="#2F2E41"/>
<path d="M276.057 35.3537C274.863 36.5083 273.142 36.8802 271.547 37.3481C269.951 37.816 268.254 38.5518 267.536 40.0489C266.832 41.5168 267.344 43.3801 268.509 44.5181C269.675 45.656 271.368 46.1354 272.998 46.1128C274.628 46.0902 276.217 45.6133 277.75 45.0595C281.942 43.5453 285.912 41.4211 289.497 38.775C287.175 38.1338 285.656 35.4275 286.321 33.1161C286.861 31.2359 288.514 29.9245 289.639 28.3228C291.576 25.565 291.899 21.9298 291.258 18.6231C290.616 15.3164 289.106 12.2511 287.612 9.23138C287.139 8.2768 286.656 7.30607 285.919 6.53636C285.182 5.76667 284.138 5.21524 283.078 5.32551C281.317 5.50851 280.193 7.43774 280.181 9.20459C280.169 10.9714 280.946 12.632 281.534 14.2982C282.141 16.0148 282.563 17.8345 282.4 19.6476C282.264 21.167 281.71 22.647 280.816 23.8838C280.125 24.839 279.245 25.6406 278.494 26.5492C277.913 27.2517 277.398 28.0474 277.245 28.9454C276.968 30.5795 277.928 32.2329 277.665 33.8694C277.386 35.5993 275.563 36.9237 273.828 36.6556" fill="#2F2E41"/>
<path d="M232.22 235.198C259.287 235.198 281.229 213.295 281.229 186.276C281.229 159.257 259.287 137.353 232.22 137.353C205.154 137.353 183.212 159.257 183.212 186.276C183.212 213.295 205.154 235.198 232.22 235.198Z" fill="#009EDD"/>
<path d="M245.904 136.518C245.31 140.758 242.638 143.889 239.935 143.511C237.232 143.134 235.523 139.391 236.117 135.15C236.331 133.453 236.95 131.831 237.92 130.421L240.662 112.489L249.065 113.953L245.469 131.476C246.016 133.098 246.165 134.827 245.904 136.518Z" fill="#FFB6B6"/>
<path d="M253.215 44.713C253.215 44.713 244.567 41.8352 243.413 52.1952C242.26 62.5552 241.107 75.2175 241.107 75.2175C241.107 75.2175 235.918 87.3041 238.224 93.6353C240.531 99.9664 244.567 95.5523 240.531 100.925C236.495 106.298 237.057 123.974 237.057 123.974L250.044 123.322C250.044 123.322 257.251 75.793 257.251 74.6419C257.251 73.4908 253.215 44.7129 253.215 44.7129V44.713Z" fill="#E6E6E6"/>
<path d="M309.431 134.594C309.591 138.872 307.51 142.422 304.783 142.524C302.056 142.625 299.716 139.24 299.555 134.961C299.468 133.252 299.791 131.548 300.499 129.99L300.047 111.855L308.577 111.825L308.117 129.705C308.939 131.207 309.39 132.883 309.431 134.594V134.594Z" fill="#FFB6B6"/>
<path d="M296.116 44.5186C296.116 44.5186 304.815 41.7955 305.783 52.1744C306.75 62.5533 307.677 81.5653 307.677 81.5653C307.677 81.5653 312.649 93.7426 310.229 100.032C307.81 106.321 303.854 101.835 307.793 107.279C311.732 112.723 310.318 128.074 310.318 128.074L297.345 127.19C297.345 127.19 291.525 81.8528 291.545 80.7019C291.566 79.5509 296.116 44.5186 296.116 44.5186V44.5186Z" fill="#E6E6E6"/>
<path d="M267.059 182.332H259.828C258.703 175.702 255.231 169.699 250.047 165.417C238.116 155.562 220.455 157.246 210.601 169.177C210.567 169.215 210.535 169.254 210.504 169.294C209.717 170.315 209.906 171.78 210.926 172.568C211.947 173.355 213.413 173.166 214.2 172.146C218.481 166.959 224.961 163.659 232.206 163.659C243.298 163.66 252.858 171.464 255.08 182.332H248.703C248.43 182.332 248.166 182.427 247.957 182.602C247.462 183.015 247.395 183.75 247.807 184.246L256.985 195.263C257.03 195.317 257.08 195.367 257.134 195.412C257.629 195.824 258.365 195.758 258.777 195.263L267.955 184.246C268.13 184.036 268.225 183.772 268.226 183.499C268.226 182.855 267.703 182.332 267.059 182.332V182.332Z" fill="white"/>
<path d="M253.485 201.432C252.464 200.645 250.998 200.834 250.211 201.854C246.815 205.966 242.115 208.791 236.891 209.861C224.257 212.447 211.918 204.302 209.331 191.668H215.708C216.353 191.668 216.875 191.145 216.875 190.501C216.874 190.228 216.779 189.964 216.604 189.754L207.426 178.737C207.014 178.242 206.278 178.175 205.783 178.588C205.729 178.633 205.679 178.683 205.634 178.737L196.456 189.754C196.044 190.25 196.111 190.985 196.606 191.398C196.816 191.573 197.08 191.668 197.352 191.668H204.583C205.709 198.298 209.18 204.301 214.364 208.583C226.295 218.438 243.956 216.754 253.81 204.823C253.844 204.785 253.876 204.746 253.907 204.706C254.695 203.685 254.506 202.22 253.485 201.432H253.485V201.432Z" fill="white"/>
<path d="M447 264H0V265.36H447V264Z" fill="#3F3D56"/>
</svg>
